<svg width="92" height="92" viewBox="0 0 92 92" fill="none" xmlns="http://www.w3.org/2000/svg">
<path d="M84.8124 37.375H82.7424C86.2212 28.0025 75.6555 19.3775 67.1599 24.4375C64.9877 21.996 61.9721 20.467 58.7188 20.1577C55.4656 19.8484 52.2158 20.7816 49.6224 22.77C49.169 21.2096 48.5014 19.7196 47.6387 18.3425C50.3124 14.375 51.2037 13.0094 53.1874 12.9375C55.8468 12.8369 56.0624 15.8125 58.9374 15.8125C61.8124 15.8125 62.6318 8.625 64.6874 8.625C68.9999 8.625 68.9999 17.25 71.8749 17.25C74.7499 17.25 73.8155 14.375 76.1874 14.375C80.4999 14.375 79.4937 21.8787 81.9374 21.5625C83.8637 21.3181 83.3749 20.125 86.2499 20.125C90.4043 20.125 90.7493 29.8281 84.8124 37.375Z" fill="url(#paint0_linear)"/>
<path d="M82.7424 37.375H77.6249C77.6249 35.42 75.1668 34.3131 73.1543 34.0256C72.8848 33.4816 72.5035 33.0007 72.0353 32.6143C71.5671 32.2278 71.0226 31.9446 70.4374 31.7831C70.1661 29.0451 69.0163 26.4683 67.1599 24.4375C75.6699 19.3775 86.2499 28.0025 82.7424 37.375Z" fill="url(#paint1_linear)"/>
<path d="M49.6225 37.375H8.625C8.62816 36.0748 9.07192 34.814 9.88386 33.7984C10.6958 32.7828 11.828 32.0724 13.0956 31.7831C13.419 30.3917 14.2488 29.1704 15.4234 28.3573C16.5979 27.5441 18.0331 27.1973 19.4494 27.3844C19.8082 26.7295 20.293 26.1521 20.8759 25.6853C21.4587 25.2186 22.1281 24.8717 22.8456 24.6646C23.563 24.4575 24.3143 24.3943 25.0563 24.4787C25.7982 24.5631 26.5161 24.7934 27.1687 25.1563C27.708 24.495 28.3876 23.962 29.1584 23.596C29.9292 23.2299 30.7717 23.04 31.625 23.04C32.4783 23.04 33.3208 23.2299 34.0916 23.596C34.8624 23.962 35.542 24.495 36.0813 25.1563C37.388 24.4267 38.9303 24.2439 40.3714 24.6479C41.8124 25.052 43.0349 26.0099 43.7719 27.3125C44.8281 27.2028 45.8947 27.3736 46.8638 27.8077C47.833 28.2418 48.6705 28.9238 49.2919 29.785C49.4788 33.7669 49.3925 32.0563 49.6225 37.375Z" fill="url(#paint2_linear)"/>
<path d="M49.6225 41.6875H8.625C8.62816 40.3873 9.07192 39.1265 9.88386 38.1109C10.6958 37.0953 11.828 36.3849 13.0956 36.0956C13.419 34.7042 14.2488 33.4829 15.4234 32.6698C16.5979 31.8566 18.0331 31.5098 19.4494 31.6969C19.8082 31.042 20.293 30.4646 20.8759 29.9978C21.4587 29.5311 22.1281 29.1842 22.8456 28.9771C23.563 28.77 24.3143 28.7068 25.0563 28.7912C25.7982 28.8756 26.5161 29.1059 27.1687 29.4688C27.708 28.8075 28.3876 28.2745 29.1584 27.9085C29.9292 27.5424 30.7717 27.3525 31.625 27.3525C32.4783 27.3525 33.3208 27.5424 34.0916 27.9085C34.8624 28.2745 35.542 28.8075 36.0813 29.4688C37.388 28.7392 38.9303 28.5564 40.3714 28.9604C41.8124 29.3645 43.0349 30.3224 43.7719 31.625C44.8281 31.5153 45.8947 31.6861 46.8638 32.1202C47.833 32.5543 48.6705 33.2363 49.2919 34.0975C49.4788 38.0794 49.3925 36.3688 49.6225 41.6875Z" fill="#4DA67F"/>
<path d="M49.6226 37.3749H37.1738V31.4812C37.1615 30.8045 37.3883 30.1452 37.8143 29.6193C38.2403 29.0934 38.8381 28.7347 39.5026 28.6062C40.1464 28.4772 40.801 28.4098 41.4576 28.4049C41.9319 28.0743 43.6426 27.1687 43.8007 27.3268C44.8517 27.1764 45.9238 27.3243 46.8948 27.7539C47.8657 28.1835 48.6963 28.8773 49.2919 29.7562C49.4788 33.7668 49.3926 32.0562 49.6226 37.3749Z" fill="#4DA67F"/>
<path d="M77.6251 37.3751H40.0488V31.4813C40.8403 31.3344 41.6485 31.3005 42.4495 31.3807C44.1601 29.5407 47.8113 29.2244 50.1688 30.0438C51.5016 29.199 53.0471 28.7504 54.6251 28.7504C56.2031 28.7504 57.7486 29.199 59.0813 30.0438C60.3733 29.5768 61.7646 29.4545 63.1182 29.6889C64.4719 29.9233 65.741 30.5064 66.8007 31.3807C69.1726 31.2513 72.3638 31.9126 73.1545 34.0257C75.7132 34.3707 77.6251 35.7363 77.6251 37.3751Z" fill="url(#paint3_linear)"/>
<path d="M61.8125 75.943H30.1875V83.3749H61.8125V75.943Z" fill="url(#paint4_linear)"/>
<path d="M50.3126 77.625H41.6876C31.0127 77.625 20.7749 73.3844 13.2266 65.8361C5.67826 58.2878 1.43765 48.05 1.43765 37.375C1.43765 37.2313 -0.862344 37.375 90.5626 37.375C90.5626 48.05 86.322 58.2878 78.7737 65.8361C71.2254 73.3844 60.9876 77.625 50.3126 77.625Z" fill="url(#paint5_linear)"/>
<path d="M90.5625 37.375C90.5625 48.05 86.3219 58.2877 78.7735 65.836C71.2252 73.3844 60.9875 77.625 50.3125 77.625H41.6875C31.0125 77.625 20.7748 73.3844 13.2265 65.836C5.67811 58.2877 1.4375 48.05 1.4375 37.375H90.5625Z" fill="url(#paint6_linear)"/>
<path d="M90.5625 39.2295C90.0851 49.5798 85.6347 59.3474 78.1375 66.4992C70.6403 73.651 60.6738 77.6361 50.3125 77.6251H41.6875C31.3262 77.6361 21.3597 73.651 13.8625 66.4992C6.36529 59.3474 1.91485 49.5798 1.4375 39.2295C2.57313 58.2045 20.125 73.3126 41.6875 73.3126H50.3125C72.3206 73.3126 89.4556 57.802 90.5625 39.2295Z" fill="#C7CDD8"/>
<path d="M73.4705 34.0686H73.1543C72.8896 33.5166 72.5104 33.0273 72.042 32.6332C71.5735 32.2391 71.0265 31.9493 70.4374 31.783C70.1661 29.0449 69.0163 26.4681 67.1599 24.4374C68.0264 23.9161 68.9666 23.5284 69.9487 23.2874C73.0393 27.3124 73.1543 30.748 73.4705 34.0686Z" fill="#F6B756"/>
<path d="M70.4376 31.7831C69.2899 31.4039 68.076 31.2668 66.8726 31.3806C65.8129 30.5064 64.5437 29.9233 63.1901 29.6888C61.8365 29.4544 60.4451 29.5767 59.1532 30.0438C57.8204 29.1989 56.2749 28.7503 54.6969 28.7503C53.1189 28.7503 51.5735 29.1989 50.2407 30.0438C49.9546 29.9453 49.6614 29.8684 49.3638 29.8138C48.5501 28.6231 47.3188 27.7816 45.9138 27.4563C47.1381 24.9182 49.1576 22.8493 51.6653 21.564C54.173 20.2787 57.0318 19.8473 59.8071 20.3353C62.5824 20.8233 65.1225 22.2042 67.0413 24.2679C68.96 26.3316 70.1526 28.9653 70.4376 31.7688V31.7831Z" fill="url(#paint7_linear)"/>
<path d="M49.6226 22.8131C48.0167 24.0439 46.7218 25.6342 45.842 27.4563C45.1737 27.2926 44.4789 27.2681 43.8007 27.3844C43.4419 26.7295 42.9571 26.1521 42.3742 25.6853C41.7914 25.2186 41.122 24.8717 40.4045 24.6646C39.6871 24.4575 38.9358 24.3943 38.1939 24.4787C37.4519 24.5631 36.734 24.7934 36.0814 25.1562C35.2886 24.1743 34.1948 23.4804 32.9686 23.1817C31.7424 22.8829 30.452 22.9959 29.2964 23.5031C26.867 18.8744 27.3126 15.3094 27.3126 10.0625H32.6601C36.487 10.0639 40.21 11.3079 43.269 13.6074C46.328 15.9068 48.5577 19.1374 49.6226 22.8131Z" fill="url(#paint8_linear)"/>
<path d="M30.9062 32.2431C30.2237 32.9121 29.6814 33.7106 29.3112 34.5918C28.9409 35.473 28.7501 36.4191 28.75 37.3749H18.6875C18.6877 35.9596 19.1058 34.5758 19.8893 33.3971C20.6728 32.2184 21.7868 31.2973 23.0918 30.7492C24.3967 30.2012 25.8344 30.0506 27.2246 30.3163C28.6147 30.5821 29.8955 31.2523 30.9062 32.2431Z" fill="url(#paint9_linear)"/>
<path d="M43.125 37.375H28.75C28.75 35.4688 29.5073 33.6406 30.8552 32.2927C32.2031 30.9448 34.0313 30.1875 35.9375 30.1875C37.8437 30.1875 39.6719 30.9448 41.0198 32.2927C42.3677 33.6406 43.125 35.4688 43.125 37.375Z" fill="url(#paint10_linear)"/>
<path d="M29.2962 23.5031C28.4662 23.8779 27.737 24.4445 27.1687 25.1562C25.9256 24.4572 24.4633 24.2569 23.078 24.5959C21.6927 24.9349 20.488 25.7878 19.7081 26.9819C18.0434 25.6349 16.7006 23.933 15.7779 22.0006C14.8552 20.0681 14.3759 17.9539 14.375 15.8125C23.4888 15.8125 24.7106 15.6256 27.3125 16.4881C27.4734 18.9399 28.1493 21.3302 29.2962 23.5031Z" fill="url(#paint11_linear)"/>
<defs>
<linearGradient id="paint0_linear" x1="68.4824" y1="37.375" x2="68.4824" y2="8.625" gradientUnits="userSpaceOnUse">
<stop stop-color="#6AB891"/>
<stop offset="1" stop-color="#85CBA9"/>
</linearGradient>
<linearGradient id="paint1_linear" x1="67.1599" y1="30.1731" x2="83.418" y2="30.1731" gradientUnits="userSpaceOnUse">
<stop stop-color="#FBCC88"/>
<stop offset="1" stop-color="#FFE5C3"/>
</linearGradient>
<linearGradient id="paint2_linear" x1="254.61" y1="324.074" x2="1423.86" y2="324.074" gradientUnits="userSpaceOnUse">
<stop stop-color="#6AB891"/>
<stop offset="1" stop-color="#85CBA9"/>
</linearGradient>
<linearGradient id="paint3_linear" x1="1578.04" y1="28.7504" x2="1578.04" y2="201.245" gradientUnits="userSpaceOnUse">
<stop stop-color="#6AB891"/>
<stop offset="1" stop-color="#85CBA9"/>
</linearGradient>
<linearGradient id="paint4_linear" x1="46" y1="83.3749" x2="46" y2="75.943" gradientUnits="userSpaceOnUse">
<stop stop-color="#A0A6BA"/>
<stop offset="1" stop-color="#C6CCDA"/>
</linearGradient>
<linearGradient id="paint5_linear" x1="46.0001" y1="77.625" x2="46.0001" y2="37.3175" gradientUnits="userSpaceOnUse">
<stop stop-color="#D4D8E1"/>
<stop offset="1" stop-color="#F3F4F5"/>
</linearGradient>
<linearGradient id="paint6_linear" x1="2853.44" y1="37.375" x2="2853.44" y2="1083.87" gradientUnits="userSpaceOnUse">
<stop stop-color="#D4D8E1"/>
<stop offset="1" stop-color="#F3F4F5"/>
</linearGradient>
<linearGradient id="paint7_linear" x1="1037.16" y1="277.575" x2="1037.16" y2="182.914" gradientUnits="userSpaceOnUse">
<stop stop-color="#FBCC88"/>
<stop offset="1" stop-color="#FFE5C3"/>
</linearGradient>
<linearGradient id="paint8_linear" x1="38.4532" y1="27.4563" x2="38.4532" y2="10.0625" gradientUnits="userSpaceOnUse">
<stop stop-color="#8CDD79"/>
<stop offset="1" stop-color="#D4E6B6"/>
</linearGradient>
<linearGradient id="paint9_linear" x1="30.9062" y1="33.7812" x2="18.6875" y2="33.7812" gradientUnits="userSpaceOnUse">
<stop stop-color="#DA5466"/>
<stop offset="1" stop-color="#F4929C"/>
</linearGradient>
<linearGradient id="paint10_linear" x1="388.125" y1="217.063" x2="388.125" y2="181.053" gradientUnits="userSpaceOnUse">
<stop stop-color="#DA5466"/>
<stop offset="1" stop-color="#F4929C"/>
</linearGradient>
<linearGradient id="paint11_linear" x1="318.47" y1="182.25" x2="163.587" y2="182.25" gradientUnits="userSpaceOnUse">
<stop stop-color="#8CDD79"/>
<stop offset="1" stop-color="#D4E6B6"/>
</linearGradient>
</defs>
</svg>
